<svg width="268" height="300" viewBox="0 0 268 300" fill="none" xmlns="http://www.w3.org/2000/svg">
<path d="M96 255.5V239.5L33 209.5V224L96 255.5Z" fill="#5A7181"/>
<path d="M33 149.5L96 180V196.5L33 166V149.5Z" fill="#5A7181"/>
<path d="M96 116V133L33 102.5V86L96 116Z" fill="#5A7181"/>
<path d="M102 132.358V126.957C102 123.272 105.849 120.853 109.169 122.452L112.669 124.137C114.4 124.97 115.5 126.721 115.5 128.642V134.043C115.5 137.728 111.651 140.147 108.331 138.548L104.831 136.863C103.1 136.03 102 134.279 102 132.358Z" fill="#5A7181"/>
<path d="M102 196.358V190.957C102 187.272 105.849 184.853 109.169 186.452L112.669 188.137C114.4 188.97 115.5 190.721 115.5 192.642V198.043C115.5 201.728 111.651 204.147 108.331 202.548L104.831 200.863C103.1 200.03 102 198.279 102 196.358Z" fill="#5A7181"/>
<path d="M102 256.358V250.957C102 247.272 105.849 244.853 109.169 246.452L112.669 248.137C114.4 248.97 115.5 250.721 115.5 252.642V258.043C115.5 261.728 111.651 264.147 108.331 262.548L104.831 260.863C103.1 260.03 102 258.279 102 256.358Z" fill="#5A7181"/>
<path d="M260 227.5L259 228L144.5 285L137 286.5H131.5L126 285L120.5 282.5L18 232L16.5 231L14.5 229.5V194V191.5L16.5 190L18 189L110 234L118 238.5L126 240.5H135.5H142.5L150 237L255.5 187L260 184L263 179.5L266.5 175V139V127L266 123L263 118L260 117H255.5L148 162L142.5 164.5H138.5H136.5H132H129.5L126 163L123.5 162L23 113.5L20 111.5L18 110L16 107.5L14.5 104.5V62V57.5V54.5L16 52L103.5 20.5L110 18.5L123 15.5H137.5H142.5H146L149.5 16.5L243 48.5L247.5 50.5L250 51.5L251 53.5L250 56L247.5 58L167.5 96.5L161.5 99L157.5 100H152H147.5H142.5H137.5H135L132 99L64.5 67.5L60 65L57 64L55 63.5H52.5H51L49 64.5L47.5 65.5L46.5 67.5L46 69.5V71L47 73.5L50 77L131 113.5L134.5 114.5H140H143.5H148H156H159L164 113.5L167.5 112.5L256.5 68.5L263 64L266 60L266.5 56V50.5L266 48L264 44.5L262.5 42L260.5 40L258.5 38.5L255.5 37L149.5 0H147.5H145H128H125L122 1L119 2L72 18.25L25 34.5L20 37L16 39L12.5 40.5L9.5 42.5L7 44L4.5 47L2.5 49.5L2 51.5V102.5V105L2.5 108L3.5 111L5 114L6.5 117L8 119.5L11 123L118 176L120 176.5L122 177.5L124.5 178.5L127 179H131.5H136.5H139.5H142.5L145.5 178.5L244 133L246.5 131.5L249.5 130.5H251.5L252.5 131L253 166.5V170.5L251.5 172L145.5 223L141.5 225L138.5 226H137H134.5H132L128 225.5L125.5 225L122.5 224L120.5 223L30 179.5L26.5 177.5L24.5 176.5L20.5 174.5L18 174H14.5H12.5L11 174.5L8.5 176L7 177L5 179L2.5 181.5L1 184L0 186.5V224V229L1.5 232.5L3.5 236L5 238L6.5 240L9.5 243L13 245.5L112 295L120 298L123 298.5L126.5 299L133 299.5H136.5H141.5L144.5 299L147.5 298.5L260.5 243L264 240.5L267 237L267.5 235L267 233L266.5 231L265.5 229.5L264.5 228L263 227.5H261.5H260Z" fill="#2F4A96"/>
</svg>
